name analog
datacolumns 19
datarows 43
range 0.0 0.021
endheader
time	ground_force_vx	ground_force_vy	ground_force_vz	ground_force_px	ground_force_py	ground_force_pz	l_ground_force_vx	l_ground_force_vy	l_ground_force_vz	l_ground_force_px	l_ground_force_py	l_ground_force_pz	ground_torque_x	ground_torque_y	ground_torque_z	l_ground_torque_x	l_ground_torque_y	l_ground_torque_z
0.0	-0.0	-0.0	-0.0	-5.750547885894775	49.06276321411133	-397.164794921875	5.136020660400391	-50.64879608154297	-380.9898071289063	-0.0	-0.0	-0.0	-0.0	-0.0	-0.0	82538.390625	35897.3515625	-4429.15380859375
0.0005	-0.0	-0.0	-0.0	-5.448754787445068	48.94969177246094	-398.1015625	5.284116268157959	-50.5916748046875	-379.94281005859375	-0.0	-0.0	-0.0	-0.0	-0.0	-0.0	82577.265625	35947.66015625	-4437.05810546875
0.001	-0.0	-0.0	-0.0	-5.8811140060424805	49.01129150390625	-396.9329223632813	5.169186592102051	-50.56061553955078	-379.9432067871094	-0.0	-0.0	-0.0	-0.0	-0.0	-0.0	82268.7578125	36111.12109375	-4425.8671875
0.0015	-0.0	-0.0	-0.0	-5.716106414794922	49.258544921875	-398.3607177734375	5.329636573791504	-50.3840446472168	-378.7628479003906	-0.0	-0.0	-0.0	-0.0	-0.0	-0.0	82209.9765625	35880.5546875	-4482.6142578125
0.002	-0.0	-0.0	-0.0	-5.715960502624512	49.09991455078125	-397.6116027832031	5.128180980682373	-50.472434997558594	-379.4607238769531	-0.0	-0.0	-0.0	-0.0	-0.0	-0.0	82311.8359375	35954.5078125	-4523.80615234375
0.0025	-0.0	-0.0	-0.0	-5.857645511627197	49.484893798828125	-397.96435546875	5.097513198852539	-50.44874954223633	-379.9444580078125	-0.0	-0.0	-0.0	-0.0	-0.0	-0.0	82105.09375	35782.78125	-4476.994140625
0.003	-0.0	-0.0	-0.0	-5.822538375854492	49.080814361572266	-399.7751159667969	4.974372863769531	-50.47911834716797	-379.71533203125	-0.0	-0.0	-0.0	-0.0	-0.0	-0.0	82190.234375	35934.66796875	-4504.484375
0.0035	-0.0	-0.0	-0.0	-5.798683166503906	49.36050796508789	-399.446533203125	5.056514739990234	-50.795860290527344	-379.4342041015625	-0.0	-0.0	-0.0	-0.0	-0.0	-0.0	82382.9609375	35977.3828125	-4482.77099609375
0.004	-0.0	-0.0	-0.0	-5.899735927581787	49.3128776550293	-398.3396911621094	5.340114116668701	-50.37326049804688	-379.9209899902344	-0.0	-0.0	-0.0	-0.0	-0.0	-0.0	82174.859375	36082.5078125	-4409.31591796875
0.0045000000000000005	-0.0	-0.0	-0.0	-5.816650390625	49.15252685546875	-399.8937072753906	5.080227851867676	-50.084510803222656	-380.3885803222656	-0.0	-0.0	-0.0	-0.0	-0.0	-0.0	82458.6328125	35909.24609375	-4476.626953125
0.005	-0.0	-0.0	-0.0	-6.066314697265625	48.97997283935547	-399.3526611328125	5.405361652374268	-50.45525741577149	-379.97015380859375	-0.0	-0.0	-0.0	-0.0	-0.0	-0.0	82329.1875	35915.44921875	-4361.66748046875
0.0055	-0.0	-0.0	-0.0	-6.239246368408203	49.55102157592773	-399.4967956542969	5.198358058929443	-50.36689758300781	-378.7124938964844	-0.0	-0.0	-0.0	-0.0	-0.0	-0.0	82389.4453125	36016.046875	-4533.8408203125
0.006	-0.0	-0.0	-0.0	-5.822323322296143	49.2944564819336	-398.3357543945313	5.304754734039307	-50.86191177368164	-380.0177917480469	-0.0	-0.0	-0.0	-0.0	-0.0	-0.0	82382.640625	35948.5625	-4626.93212890625
0.006500000000000001	-0.0	-0.0	-0.0	-6.047915935516357	49.53292083740234	-399.0933227539063	5.434927940368652	-50.602783203125	-380.2969665527344	-0.0	-0.0	-0.0	-0.0	-0.0	-0.0	82421.203125	36262.12890625	-4464.61279296875
0.007	-0.0	-0.0	-0.0	-6.084822654724121	49.02172088623047	-397.7939453125	5.447577476501465	-50.63175964355469	-379.8056945800781	-0.0	-0.0	-0.0	-0.0	-0.0	-0.0	82360.484375	36146.3125	-4452.5361328125
0.0075	-0.0	-0.0	-0.0	-6.019248962402344	49.373329162597656	-398.4606628417969	5.588779449462891	-50.87855911254883	-381.8585815429688	-0.0	-0.0	-0.0	-0.0	-0.0	-0.0	82618.1328125	36010.89453125	-4422.80029296875
0.008	-0.0	-0.0	-0.0	-5.582819938659668	49.53302764892578	-397.5134887695313	5.575599670410156	-50.65504837036133	-381.2014770507813	-0.0	-0.0	-0.0	-0.0	-0.0	-0.0	82498.421875	35780.59375	-4464.63330078125
0.0085	-0.0	-0.0	-0.0	-5.596802234649658	49.490814208984375	-398.8330383300781	5.943622589111328	-50.91994094848633	-381.530517578125	-0.0	-0.0	-0.0	-0.0	-0.0	-0.0	82602.8046875	36131.23046875	-4466.14599609375
0.009000000000000001	-0.0	-0.0	-0.0	-5.798683166503906	49.31251907348633	-398.5724487304688	5.61217212677002	-51.04510116577149	-380.8323669433594	-0.0	-0.0	-0.0	-0.0	-0.0	-0.0	82414.8515625	36066.640625	-4389.8046875
0.0095	-0.0	-0.0	-0.0	-5.798683166503906	48.96030044555664	-396.2851257324219	5.742844581604004	-51.00812530517578	-380.48333740234375	-0.0	-0.0	-0.0	-0.0	-0.0	-0.0	82530.6640625	36257.421875	-4332.01123046875
0.01	-0.0	-0.0	-0.0	-5.58195686340332	49.369850158691406	-397.0075073242188	6.027763843536377	-50.924278259277344	-381.5489196777344	-0.0	-0.0	-0.0	-0.0	-0.0	-0.0	82658.6875	36120.37890625	-4495.7158203125
0.0105	-0.0	-0.0	-0.0	-5.775363922119141	49.045021057128906	-396.083251953125	5.812774658203125	-50.83134078979492	-382.1551818847656	-0.0	-0.0	-0.0	-0.0	-0.0	-0.0	82535.8515625	36237.30859375	-4406.841796875
0.011	-0.0	-0.0	-0.0	-5.550414085388184	49.15737915039063	-398.1104431152344	5.878162384033203	-50.915321350097656	-382.5786743164063	-0.0	-0.0	-0.0	-0.0	-0.0	-0.0	82996.46875	36041.67578125	-4444.2431640625
0.0115	-0.0	-0.0	-0.0	-5.422369003295898	49.15730667114258	-398.4640808105469	5.920408248901367	-51.17622756958008	-382.321044921875	-0.0	-0.0	-0.0	-0.0	-0.0	-0.0	82704.2421875	36157.45703125	-4377.16455078125
0.012	-0.0	-0.0	-0.0	-5.907472133636475	49.153602600097656	-395.7740478515625	5.789380073547363	-51.00378036499024	-382.68597412109375	-0.0	-0.0	-0.0	-0.0	-0.0	-0.0	82987.484375	36183.3046875	-4453.37109375
0.0125	-0.0	-0.0	-0.0	-5.507874965667725	48.8897705078125	-397.7723693847656	5.920477390289307	-50.91552734375	-381.804931640625	-0.0	-0.0	-0.0	-0.0	-0.0	-0.0	82769.6640625	36086.46875	-4413.1845703125
0.013000000000000001	-0.0	-0.0	-0.0	-5.484770774841309	49.11085510253906	-396.3727722167969	6.186645984649658	-51.426231384277344	-382.9283752441406	-0.0	-0.0	-0.0	-0.0	-0.0	-0.0	82899.109375	36129.2421875	-4370.521484375
0.0135	-0.0	-0.0	-0.0	-5.557361125946045	49.04800796508789	-396.2806091308594	6.094390869140625	-51.20717239379883	-382.2442932128906	-0.0	-0.0	-0.0	-0.0	-0.0	-0.0	82937.96875	36078.53125	-4327.783203125
0.014	-0.0	-0.0	-0.0	-5.33262825012207	49.15388488769531	-397.9303283691406	5.707414627075195	-51.314903259277344	-383.8083190917969	-0.0	-0.0	-0.0	-0.0	-0.0	-0.0	82993.78125	36191.265625	-4399.2529296875
0.0145	-0.0	-0.0	-0.0	-5.4188079833984375	49.269020080566406	-398.1930541992188	5.927216529846191	-51.22329711914063	-383.446044921875	-0.0	-0.0	-0.0	-0.0	-0.0	-0.0	83100.8046875	36274.3203125	-4458.4013671875
0.015	-0.0	-0.0	-0.0	-6.106756210327148	49.26613998413086	-396.62109375	5.989554405212402	-51.55699920654297	-383.536865234375	-0.0	-0.0	-0.0	-0.0	-0.0	-0.0	83217.2109375	36467.34375	-4465.06689453125
0.0155	-0.0	-0.0	-0.0	-5.798683166503906	49.13379669189453	-397.85198974609375	5.880863666534424	-51.53419876098633	-383.7294921875	-0.0	-0.0	-0.0	-0.0	-0.0	-0.0	83171.7109375	36213.61328125	-4407.86328125
0.016	-0.0	-0.0	-0.0	-5.464767456054688	48.58105850219727	-397.5799865722656	5.769075393676758	-51.5542106628418	-384.8439025878906	-0.0	-0.0	-0.0	-0.0	-0.0	-0.0	83169.1640625	36310.90625	-4362.91015625
0.0165	-0.0	-0.0	-0.0	-5.55394172668457	49.55650329589844	-396.4677429199219	5.9637532234191895	-51.206539154052734	-384.7543640136719	-0.0	-0.0	-0.0	-0.0	-0.0	-0.0	83200.96875	36407.91796875	-4502.4111328125
0.017	-0.0	-0.0	-0.0	-5.574551105499268	49.51304626464844	-396.095703125	5.9840898513793945	-51.380496978759766	-384.67523193359375	-0.0	-0.0	-0.0	-0.0	-0.0	-0.0	83389.640625	36337.53515625	-4391.43994140625
0.0175	-0.0	-0.0	-0.0	-5.975038528442383	49.04658508300781	-397.3356018066406	6.075465202331543	-51.33759307861328	-385.1045837402344	-0.0	-0.0	-0.0	-0.0	-0.0	-0.0	83174.4921875	36397.5390625	-4465.9453125
0.018000000000000002	-0.0	-0.0	-0.0	-5.620262145996094	48.84346008300781	-396.2678833007813	5.811707496643066	-51.33755493164063	-384.2368469238281	-0.0	-0.0	-0.0	-0.0	-0.0	-0.0	83422.734375	36470.81640625	-4392.34521484375
0.0185	-0.0	-0.0	-0.0	-5.863358974456787	49.24365997314453	-397.7706604003906	6.382839679718018	-51.20611953735352	-384.76507568359375	-0.0	-0.0	-0.0	-0.0	-0.0	-0.0	83514.0234375	36590.52734375	-4473.267578125
0.019	-0.0	-0.0	-0.0	-5.39969539642334	49.178932189941406	-398.02728271484375	5.918915271759033	-51.33748626708984	-383.62835693359375	-0.0	-0.0	-0.0	-0.0	-0.0	-0.0	83307.0546875	36490.1875	-4546.75146484375
0.0195	-0.0	-0.0	-0.0	-5.842541217803955	49.04288864135742	-397.4112854003906	5.900206565856934	-51.60054397583008	-385.9833984375	-0.0	-0.0	-0.0	-0.0	-0.0	-0.0	83356.90625	36534.3984375	-4435.79736328125
0.02	-0.0	-0.0	-0.0	-5.685480117797852	48.6439323425293	-396.088623046875	6.011458396911621	-51.84310150146485	-384.8403930664063	-0.0	-0.0	-0.0	-0.0	-0.0	-0.0	83581.6640625	36568.796875	-4480.6015625
0.0205	-0.0	-0.0	-0.0	-5.487054824829102	49.44357299804688	-396.1784057617188	5.746828079223633	-52.085723876953125	-384.50482177734375	-0.0	-0.0	-0.0	-0.0	-0.0	-0.0	83446.0546875	36612.31640625	-4599.5185546875
0.021	-0.0	-0.0	-0.0	-5.596621036529541	48.532039642333984	-395.9104614257813	5.522610664367676	-51.801395416259766	-385.8067932128906	-0.0	-0.0	-0.0	-0.0	-0.0	-0.0	83530.90625	36529.27734375	-4525.21435546875
